<svg t="1660834347676" class="icon" viewBox="0 0 1024 1024" version="1.1" xmlns="http://www.w3.org/2000/svg" p-id="1635" width="64" height="64">
    <path d="M718.725858 184.503785 305.271072 184.503785c-76.861398 0-139.169365 62.30899-139.169365 139.169365L166.101707 700.328896c0 76.859352 62.307967 139.169365 139.169365 139.169365l413.454787 0c76.861398 0 139.169365-62.310013 139.169365-139.169365L857.895223 323.67315C857.895223 246.812775 795.587257 184.503785 718.725858 184.503785zM250.672679 732.592653c6.464212-7.935724 26.106536-31.611912 49.648671-55.756773 41.883839-42.957285 62.690682-53.155534 69.032098-55.469225 8.159827 5.057169 23.2771 22.250726 32.6301 32.886949 23.73554 26.99681 48.280513 54.911524 80.869681 58.393828 28.162354 3.001351 52.282656-14.610737 75.599664-31.649774 7.125267-5.206572 18.33761-13.399145 24.800799-16.618459 7.248063 3.691058 28.208402 17.514874 67.274062 66.398113 9.175968 11.481473 17.722605 22.868801 25.076068 32.997466L305.271072 763.774777C282.06151 763.773754 261.734596 751.239301 250.672679 732.592653zM782.170716 700.328896c0 20.018899-9.329464 37.88886-23.857313 49.524851-9.026566-13.387888-27.45525-39.945701-49.461406-67.390718-61.415645-76.598409-95.02607-90.243147-114.964128-93.843131-29.956206-5.407139-56.603046 14.057129-80.110389 31.235336-6.819299 4.982468-17.41766 12.726834-23.889035 16.13239-8.214062-5.778599-22.223096-21.713491-31.036815-31.737778-25.604093-29.119143-52.064692-59.217588-88.130024-59.217588-0.399089 0-0.803294 0.005117-1.204429 0.01228-32.163473 0.595563-69.369789 24.062997-120.637327 76.09392-2.391462 2.427277-4.740968 4.848415-7.053636 7.258296L241.826214 323.67315c0-34.983699 28.461158-63.444857 63.444857-63.444857l413.454787 0c34.983699 0 63.444857 28.461158 63.444857 63.444857L782.170716 700.328896z" p-id="1636" fill="#46b156"></path>
    <path d="M603.921365 309.66821c-71.565799 0-129.785666 58.221913-129.785666 129.785666 0 71.564776 58.22089 129.785666 129.785666 129.785666 71.564776 0 129.785666-58.22089 129.785666-129.785666C733.708055 367.890123 675.486141 309.66821 603.921365 309.66821zM603.921365 493.515034c-29.809873 0-54.061158-24.251285-54.061158-54.061158s24.251285-54.061158 54.061158-54.061158 54.061158 24.251285 54.061158 54.061158S633.731239 493.515034 603.921365 493.515034z" p-id="1637" fill="#46b156"></path>
</svg>