<?xml version="1.0" standalone="no"?><!DOCTYPE svg PUBLIC "-//W3C//DTD SVG 1.1//EN" "http://www.w3.org/Graphics/SVG/1.1/DTD/svg11.dtd"><svg t="1655184610933" class="icon" viewBox="0 0 1024 1024" version="1.1" xmlns="http://www.w3.org/2000/svg" p-id="2378" xmlns:xlink="http://www.w3.org/1999/xlink" width="200" height="200"><defs><style type="text/css">@font-face { font-family: feedback-iconfont; src: url("//at.alicdn.com/t/font_1031158_u69w8yhxdu.woff2?t=1630033759944") format("woff2"), url("//at.alicdn.com/t/font_1031158_u69w8yhxdu.woff?t=1630033759944") format("woff"), url("//at.alicdn.com/t/font_1031158_u69w8yhxdu.ttf?t=1630033759944") format("truetype"); }
</style></defs><path d="M897.706667 989.866667H126.293333c-51.2 0-92.16-40.96-92.16-92.16V512c0-13.653333 11.946667-25.6 25.6-25.6S85.333333 498.346667 85.333333 512v385.706667C85.333333 919.893333 104.106667 938.666667 126.293333 938.666667h769.706667c22.186667 0 40.96-18.773333 40.96-40.96V512c0-13.653333 11.946667-25.6 25.6-25.6s27.306667 11.946667 27.306667 25.6v385.706667c0 51.2-40.96 92.16-92.16 92.16z" p-id="2379"></path><path d="M512 738.986667c-6.826667 0-13.653333-1.706667-18.773333-6.826667L267.946667 505.173333c-10.24-10.24-10.24-25.6 0-35.84s25.6-10.24 35.84 0L512 677.546667l208.213333-208.213334c10.24-10.24 25.6-10.24 35.84 0s10.24 25.6 0 35.84L530.773333 730.453333c-5.12 5.12-11.946667 8.533333-18.773333 8.533334z" p-id="2380"></path><path d="M512 738.986667c-13.653333 0-25.6-11.946667-25.6-25.6V59.733333c0-13.653333 11.946667-25.6 25.6-25.6s25.6 11.946667 25.6 25.6v653.653334c0 13.653333-11.946667 25.6-25.6 25.6z" p-id="2381"></path></svg>