<?xml version="1.0" standalone="no"?><!DOCTYPE svg PUBLIC "-//W3C//DTD SVG 1.1//EN" "http://www.w3.org/Graphics/SVG/1.1/DTD/svg11.dtd"><svg t="1649399734565" class="icon" viewBox="0 0 1024 1024" version="1.1" xmlns="http://www.w3.org/2000/svg" p-id="1723" xmlns:xlink="http://www.w3.org/1999/xlink" width="200" height="200"><defs><style type="text/css">@font-face { font-family: feedback-iconfont; src: url("//at.alicdn.com/t/font_1031158_u69w8yhxdu.woff2?t=1630033759944") format("woff2"), url("//at.alicdn.com/t/font_1031158_u69w8yhxdu.woff?t=1630033759944") format("woff"), url("//at.alicdn.com/t/font_1031158_u69w8yhxdu.ttf?t=1630033759944") format("truetype"); }
</style></defs><path d="M901.12 203.1616h-75.1616a66.3552 66.3552 0 0 0-4.7104-88.4736l-79.872-79.872a66.56 66.56 0 0 0-94.208 0L512 170.1888 376.6272 34.816a66.56 66.56 0 0 0-94.208 0L202.752 114.688a66.3552 66.3552 0 0 0-4.7104 88.4736H122.88a122.88 122.88 0 0 0-122.88 122.88 122.88 122.88 0 0 0 75.9808 113.4592V860.16A148.6848 148.6848 0 0 0 225.28 1008.64h573.44A148.6848 148.6848 0 0 0 948.0192 860.16V439.5008A122.88 122.88 0 0 0 1024 326.0416a122.88 122.88 0 0 0-122.88-122.88zM683.6224 71.0656a15.5648 15.5648 0 0 1 21.7088 0l79.872 79.872a15.5648 15.5648 0 0 1 0 21.7088l-30.72 30.5152h-202.9568zM455.68 397.7216v-143.36h112.64v143.36z m112.64 51.2v508.5184h-112.64V448.9216zM239.0016 172.6464a15.5648 15.5648 0 0 1 0-21.7088l79.872-79.872a15.5648 15.5648 0 0 1 21.7088 0l132.096 132.096h-203.1616zM51.2 326.0416a71.68 71.68 0 0 1 71.68-71.68h281.6v143.36H122.88a71.68 71.68 0 0 1-71.68-71.68zM127.1808 860.16V448.9216h277.2992v508.5184H225.28A97.4848 97.4848 0 0 1 127.1808 860.16zM798.72 957.44h-179.2V448.9216h277.2992V860.16A97.4848 97.4848 0 0 1 798.72 957.44z m102.4-559.7184H619.52v-143.36H901.12a71.68 71.68 0 1 1 0 143.36z" p-id="1724"></path></svg>