<?xml version="1.0" standalone="no"?><!DOCTYPE svg PUBLIC "-//W3C//DTD SVG 1.1//EN" "http://www.w3.org/Graphics/SVG/1.1/DTD/svg11.dtd"><svg t="1656294345887" class="icon" viewBox="0 0 1024 1024" version="1.1" xmlns="http://www.w3.org/2000/svg" p-id="1626" width="32" height="32" xmlns:xlink="http://www.w3.org/1999/xlink"><defs><style type="text/css">@font-face { font-family: feedback-iconfont; src: url("//at.alicdn.com/t/font_1031158_u69w8yhxdu.woff2?t=1630033759944") format("woff2"), url("//at.alicdn.com/t/font_1031158_u69w8yhxdu.woff?t=1630033759944") format("woff"), url("//at.alicdn.com/t/font_1031158_u69w8yhxdu.ttf?t=1630033759944") format("truetype"); }
</style></defs><path d="M670.51 225.49c-12.445-12.445-32.81-12.445-45.255 0L512 338.745 398.745 225.49c-12.445-12.445-32.81-12.445-45.255 0s-12.445 32.81 0 45.255L434.745 352H384c-17.6 0-32 14.4-32 32s14.4 32 32 32h96v32h-96c-17.6 0-32 14.4-32 32s14.4 32 32 32h96v96c0 17.6 14.4 32 32 32s32-14.4 32-32v-96h96c17.6 0 32-14.4 32-32s-14.4-32-32-32h-96v-32h96c17.6 0 32-14.4 32-32s-14.4-32-32-32h-50.745l81.255-81.255c12.445-12.445 12.445-32.81 0-45.255z" p-id="1627"></path><path d="M832 64H192c-70.4 0-128 57.6-128 128v448c0 70.4 57.6 128 128 128h64v160.005c0 0.532 0.015 1.064 0.041 1.595 0.006 0.13 0.02 0.258 0.028 0.387 0.025 0.409 0.053 0.818 0.094 1.226 0.009 0.092 0.023 0.184 0.033 0.276 0.049 0.456 0.106 0.912 0.175 1.366l0.002 0.011c0.99 6.523 3.977 12.794 8.973 17.79 4.996 4.996 11.266 7.983 17.789 8.973l0.012 0.002c0.454 0.069 0.909 0.125 1.365 0.175 0.093 0.01 0.184 0.024 0.277 0.033 0.408 0.041 0.816 0.069 1.225 0.094 0.13 0.008 0.258 0.021 0.388 0.028 0.531 0.026 1.063 0.041 1.594 0.041h0.006c0.534 0 1.068-0.015 1.601-0.041 0.126-0.006 0.25-0.019 0.376-0.027a32.01 32.01 0 0 0 1.237-0.095c0.089-0.009 0.176-0.022 0.265-0.032 7.017-0.757 13.827-3.802 19.176-9.151L493.31 768H832c70.4 0 128-57.6 128-128V192c0-70.4-57.6-128-128-128z m64 576c0 35.2-28.8 64-64 64H480.002c-8.213-0.001-16.427 3.114-22.658 9.345L320 850.69V736c0-17.6-14.4-32-32-32h-96c-35.2 0-64-28.8-64-64V192c0-35.2 28.8-64 64-64h640c35.2 0 64 28.8 64 64v448z" p-id="1628"></path></svg>