<svg t="1653304345061" class="icon" viewBox="0 0 1024 1024" version="1.1" xmlns="http://www.w3.org/2000/svg" p-id="3747" width="32" height="32"><path d="M438.1 585.1H166c-37.4 0-68-30.9-68-68.9V175.9c0-38 30.6-68.9 68-68.9h272.1c37.4 0 68 30.9 68 68.9v340.3c0 37.9-30.5 68.9-68 68.9zM874.4 217.3H703c-29.5 0-53.6-24.4-53.6-54.3v-1.7c0-29.9 24.1-54.3 53.6-54.3h171.4c29.5 0 53.6 24.4 53.6 54.3v1.7c-0.1 29.9-24.3 54.3-53.6 54.3zM874.4 399.8H703c-29.5 0-53.6-24.4-53.6-54.3v-1.7c0-29.9 24.1-54.3 53.6-54.3h171.4c29.5 0 53.6 24.4 53.6 54.3v1.7c-0.1 29.9-24.3 54.3-53.6 54.3zM874.4 582.5H703c-29.5 0-53.6-24.4-53.6-54.3v-1.7c0-29.9 24.1-54.3 53.6-54.3h171.4c29.5 0 53.6 24.4 53.6 54.3v1.7c-0.1 29.9-24.3 54.3-53.6 54.3zM859.9 937H166c-37.4 0-68-30.9-68-68.9v-98.6c0-38 30.6-68.9 68-68.9h693.9c37.4 0 68 30.9 68 68.9v98.6c0 38-30.6 68.9-68 68.9z" p-id="3748"></path></svg>