<?xml version="1.0" standalone="no"?><!DOCTYPE svg PUBLIC "-//W3C//DTD SVG 1.1//EN" "http://www.w3.org/Graphics/SVG/1.1/DTD/svg11.dtd"><svg t="1541582872263" class="icon" style="" viewBox="0 0 1024 1024" version="1.1" xmlns="http://www.w3.org/2000/svg" p-id="8264" xmlns:xlink="http://www.w3.org/1999/xlink" width="24" height="24"><defs><style type="text/css"></style></defs><path d="M743.028 152.185l1.022 1.739 115.742 200.47C916.77 364.647 960 414.452 960 474.346v104.651c0 16.512-13.394 29.897-29.917 29.897h-5.4c-26.37 0-47.746 21.363-47.746 47.715 0 26.14 21.205 47.331 47.362 47.331l5.636-0.027c16.58-0.082 30.065 13.327 30.065 29.897v99.301C960 900.429 905.393 955 838.031 955H195.97C128.607 955 74 900.429 74 833.112v-97.467c0-16.512 13.394-29.897 29.917-29.897h9.883c27.084 0 49.04-21.941 49.04-49.007 0-27.184-21.982-49.257-49.184-49.388l-9.884-0.048C87.306 607.225 74 593.864 74 577.41V474.347c0-57.979 40.509-106.503 94.785-118.85l86.52-149.852c33.321-57.715 106.747-77.851 164.816-45.568l1.755 0.995 32.928 19.01 122.704-70.842c57.715-33.322 131.372-14.048 165.52 42.945z m95.003 260.068H195.97c-34.316 0-62.135 27.8-62.135 62.094v75.118l1.197 0.23c49.442 9.915 86.785 53.164 87.628 105.247l0.014 1.8c0 52.878-37.747 96.946-87.783 106.76l-1.056 0.196v69.414c0 33.95 27.265 61.537 61.107 62.086l1.028 0.008H838.03c34.316 0 62.135-27.8 62.135-62.094v-72.105l-1.627-0.385c-46.21-11.392-80.619-52.734-81.422-102.24l-0.014-1.772c0-50.47 34.8-92.816 81.727-104.384l1.336-0.319v-77.56c0-33.95-27.265-61.537-61.107-62.085l-1.028-0.009zM592.756 695.671c16.523 0 29.917 13.386 29.917 29.897 0 16.276-13.014 29.514-29.21 29.89l-0.707 0.007H429.768c-16.523 0-29.917-13.385-29.917-29.897 0-16.276 13.014-29.514 29.21-29.889l0.707-0.008h162.988z m0-140.832c16.523 0 29.917 13.386 29.917 29.897 0 16.276-13.014 29.514-29.21 29.89l-0.707 0.007H429.768c-16.523 0-29.917-13.385-29.917-29.897 0-16.275 13.014-29.514 29.21-29.889l0.707-0.008h162.988z m15.562-394.288l-0.893 0.506-92.787 53.57 237.716 137.246c0.33 0.19 0.653 0.385 0.973 0.586h36.303l-97.363-168.638c-16.986-29.422-54.386-39.705-83.949-23.27z m-300.676 74.126l-0.52 0.885L239.63 352.46h394.151L391.979 212.855c-29.421-16.987-66.951-7.193-84.337 21.822z" fill="" p-id="1504"></path></svg>