<?xml version="1.0" standalone="no"?><!DOCTYPE svg PUBLIC "-//W3C//DTD SVG 1.1//EN" "http://www.w3.org/Graphics/SVG/1.1/DTD/svg11.dtd"><svg t="1658755244302" class="icon" viewBox="0 0 1024 1024" version="1.1" xmlns="http://www.w3.org/2000/svg" p-id="5395" xmlns:xlink="http://www.w3.org/1999/xlink" width="128" height="128"><defs><style type="text/css">@font-face { font-family: feedback-iconfont; src: url("//at.alicdn.com/t/font_1031158_u69w8yhxdu.woff2?t=1630033759944") format("woff2"), url("//at.alicdn.com/t/font_1031158_u69w8yhxdu.woff?t=1630033759944") format("woff"), url("//at.alicdn.com/t/font_1031158_u69w8yhxdu.ttf?t=1630033759944") format("truetype"); }
</style></defs><path d="M160.2 955.3c-25.7 0-51.1-10.7-66.1-28.1-19.9-22.9-25.4-38.5-25.4-72.4V236l0.4-23.6c0-21.6 9.9-43.7 27.2-60.6 16.6-16.2 41-25.9 65.1-25.9h124.8l0.8 0.1c14.8 1.1 26.4 13.2 26.4 27.7 0 14.3-11.8 26.3-26.9 27.4H171.2c-4.2 0-19 1.1-32.9 14.6-7.8 7.6-12 17.7-12.4 30 0 1.2-0.1 44.1-0.1 44.5 0 1.2 0.1 2.5 0.3 4 0.5 3.6 3 15.9 13.1 25.7 12.6 12.3 25 13.7 33.2 13.7h690.2c9.1 0 40.7 1.8 65.1 25.6 25 24.4 27.7 51 27.7 61.3v464.4c0 11.3-2.4 39.9-24.6 61.5-26.6 25.9-50.8 28.9-66.7 28.9H160.2z m-34.4-101.1c0 16 8.5 28.5 15.8 34.3 7 5.6 16.1 11.3 30.7 11.3h679.4c7.2 0 21-1.7 32.5-13 8.3-8.1 12.9-17.6 13.8-28.5h0.1V414.5c0-7-1.8-20.6-13.7-32.2-12.3-12-27-13.3-32.8-13.3H161.5c-10.5 0-21.3-1.7-30.3-4.9l-5.3-1.8v491.9z" fill="#ffffff" p-id="5396"></path><path d="M528 819c-15.8 0-28.6-12.7-28.6-28.4s12.8-28.4 28.6-28.4h236.7c15.8 0 28.6 12.8 28.6 28.4 0 15.7-12.8 28.4-28.6 28.4H528z m156.4-558.5c-12.4 0-24.9-10.2-29.9-20l-1.7-3.3-0.7 0.3-54.7-82.6c-2.5-5.9-7.1-10.4-13-12.7-2.6-1-5.3-1.5-8.1-1.5-3.6 0-7 0.8-10.3 2.5h-0.1l-0.2 0.1-167.6 107.9c-7.1 4-13.6 6.3-18.3 6.3h-0.5c-17.3 0-31.4-13-31.4-29 0-11.4 6.5-21.7 17-26.8l0.2-0.1L561.8 74.3c7.3-3.7 15-5.6 22.8-5.6 6.1 0 12.1 1.2 18 3.4 13.8 5.3 18.8 11.8 27.5 26.5l77.1 114.9 0.1 0.2c4.4 5.3 6.9 12 6.9 18.9 0 16.2-12.5 27.9-29.8 27.9z m199.7-6.4c-15.7 0-28.5-12.4-28.5-27.7v-2.2c0-7.2 0-19.4-11.5-30.6-12.5-12.2-27.8-12.2-32.8-12.2h-26.7l-1.9-0.1c-15.8 0-28.6-12.4-28.6-27.7 0-15.3 12.8-27.7 28.5-27.7h37.2c17.7 0 43.1 4.2 63.7 24.4 14 13.7 29 35 29 53.9v22.2c0.1 15.2-12.6 27.7-28.4 27.7z" fill="#ffffff" p-id="5397"></path></svg>