<svg t="1635472629153" class="icon" viewBox="0 0 1024 1024" version="1.1" xmlns="http://www.w3.org/2000/svg" p-id="2334" width="32" height="32">
    <path d="M512 696.721569c132.437333 0 239.616-106.475922 239.616-237.628236 0-131.152314-107.178667-237.628235-239.616-237.628235-132.437333 0-239.616 106.475922-239.616 237.628235C272.384 590.245647 379.562667 696.721569 512 696.721569z m0 60.235294c-165.606902 0-299.851294-133.360941-299.851294-297.86353C212.148706 294.590745 346.393098 161.229804 512 161.229804s299.851294 133.360941 299.851294 297.863529C811.851294 623.595922 677.606902 756.956863 512 756.956863z m-174.46149 92.340706c0-16.584784 13.653333-30.037333 29.997176-30.037334h277.925647c16.564706 0 29.977098 13.593098 29.977098 30.037334v7.067607c0 16.584784-13.653333 30.017255-29.977098 30.017255H367.535686a30.097569 30.097569 0 0 1-29.997176-30.017255v-7.067607z m82.100706 122.819764c0-16.584784 13.291922-30.017255 30.097568-30.017255H574.243137c16.624941 0 30.097569 13.57302 30.097569 30.017255v7.067608c0 16.584784-13.291922 30.037333-30.097569 30.037334H449.756863a30.157804 30.157804 0 0 1-30.097569-30.037334v-7.067608zM508.466196 112.64a30.017255 30.017255 0 0 1-30.037333-30.197961V30.177882c0-16.665098 13.593098-30.177882 30.037333-30.177882h7.067608c16.584784 0 30.037333 13.372235 30.037333 30.177882v52.264157c0 16.665098-13.593098 30.197961-30.037333 30.197961h-7.067608zM861.163922 433.192157c0-16.584784 13.372235-30.037333 30.19796-30.037333h52.264157c16.665098 0 30.177882 13.593098 30.177883 30.037333v7.067608c0 16.584784-13.372235 30.017255-30.177883 30.017255h-52.264157c-16.665098 0-30.197961-13.57302-30.19796-30.017255v-7.067608z m-810.967844 0c0-16.584784 13.372235-30.037333 30.177883-30.037333h52.264157c16.665098 0 30.197961 13.593098 30.19796 30.037333v7.067608c0 16.584784-13.372235 30.017255-30.19796 30.017255H80.373961c-16.665098 0-30.177882-13.57302-30.177883-30.017255v-7.067608z m110.029804-294.952157a30.017255 30.017255 0 0 1 42.084393-6.565647l42.285176 30.72c13.492706 9.818353 16.444235 28.752314 6.766431 42.044235l-4.156235 5.722353a30.017255 30.017255 0 0 1-42.064314 6.545569L162.836078 185.98651a30.197961 30.197961 0 0 1-6.766431-42.024157l4.156235-5.722353z m699.211294 0l4.156236 5.722353a30.197961 30.197961 0 0 1-6.766432 42.024157l-42.285176 30.72a30.017255 30.017255 0 0 1-42.064314-6.545569l-4.156235-5.722353a30.197961 30.197961 0 0 1 6.766431-42.024157l42.285177-30.72a30.017255 30.017255 0 0 1 42.064313 6.545569z" p-id="2335"></path>
</svg>