<?xml version="1.0" standalone="no"?><!DOCTYPE svg PUBLIC "-//W3C//DTD SVG 1.1//EN" "http://www.w3.org/Graphics/SVG/1.1/DTD/svg11.dtd"><svg t="1636531401781" class="icon" viewBox="0 0 1024 1024" version="1.1" xmlns="http://www.w3.org/2000/svg" p-id="2522" xmlns:xlink="http://www.w3.org/1999/xlink" width="200" height="200"><defs><style type="text/css"></style></defs><path d="M470.726479 538.986631c-0.818645 0-1.638313-0.066515-2.470261-0.215918-56.656371-10.281157-95.91756-38.643112-116.682489-84.333734-3.14155-6.913457-0.094144-15.061021 6.819313-18.201547 6.89913-3.180436 15.059997-0.093121 18.200524 6.819313 17.060561 37.516452 48.643883 59.971883 96.563266 68.656683 7.476275 1.355881 12.429077 8.509814 11.073196 15.987113C483.034806 534.327518 477.236753 538.986631 470.726479 538.986631z" p-id="2523"></path><path d="M504.699222 648.300292l-12.857842 0c-150.508899 0-284.157805-140.106991-284.157805-296.587905L207.683575 81.917708c0-15.180747 13.945617-24.644283 29.126364-24.644283L759.112586 57.273425c15.180747 0 25.851784 9.463536 25.851784 24.644283L784.96437 351.71341C784.96437 508.194324 654.872476 648.300292 504.699222 648.300292zM262.662747 112.25362 262.662747 351.71341c0 124.96513 110.092397 241.60771 229.178633 241.60771l12.857842 0c118.763894 0 225.285976-116.64258 225.285976-241.60771L729.985198 112.25362 262.662747 112.25362z" p-id="2524"></path><path d="M690.388365 950.692391 291.790134 950.692391c-15.180747 0-27.490098-12.32163-27.490098-27.489074 0-15.195074 12.308327-27.489074 27.490098-27.489074l398.599254 0c15.181771 0 27.490098 12.295024 27.490098 27.489074C717.878462 938.370761 705.570135 950.692391 690.388365 950.692391z" p-id="2525"></path><path d="M482.579435 947.847599c-15.180747 0-27.490098-12.32163-27.490098-27.489074L455.089337 617.965403c0-15.180747 12.308327-27.489074 27.490098-27.489074 15.180747 0 27.489074 12.308327 27.489074 27.489074l0 302.393121C510.06851 935.525969 497.760183 947.847599 482.579435 947.847599z" p-id="2526"></path><path d="M236.796636 412.06187c-2.174526 0-4.375657-0.51063-6.429433-1.597381-6.697539-3.557012-9.261944-11.851932-5.718235-18.549471 1.865487-3.530406 46.657646-86.724177 133.018549-112.307855 50.818409-15.059997 104.884792-6.89913 160.735821 24.255427 133.461641 74.42813 182.28051 21.516036 211.461109-10.067286 8.764618-9.489118 15.691377-16.993023 23.972994-20.442588 7.019881-2.899026 15.061021 0.415462 17.960047 7.42204 2.913353 7.007601-0.403183 15.061021-7.408737 17.97335-2.725064 1.127683-9.154497 8.094352-14.322194 13.690814-30.081109 32.603559-92.682889 100.414991-245.058298 15.423271-49.046043-27.356045-95.90528-34.71157-139.327232-21.960151-75.207889 22.174022-116.320239 98.107435-116.736725 98.871845C246.474043 409.417647 241.722832 412.06187 236.796636 412.06187z" p-id="2527"></path></svg>